<svg width="36" height="36" viewBox="0 0 36 36" fill="none" xmlns="http://www.w3.org/2000/svg">
<rect width="36" height="36" rx="18" fill="white" fill-opacity="0.5"/>
<g clip-path="url(#clip0_6229_266)">
<path d="M20.9802 16.5843L21.0094 16.8666L21.2667 16.9862C22.863 17.7284 24 19.0057 24 20.5312C24 20.7211 23.8461 20.875 23.6563 20.875H18.875H18.375V21.375V24.9798L17.75 26.2299L17.125 24.9798V21.375V20.875H16.625H11.8438C11.6539 20.875 11.5 20.7211 11.5 20.5312C11.5 19.0196 12.621 17.7358 14.2333 16.9862L14.4906 16.8666L14.5198 16.5843L14.9499 12.4265L15.007 11.875H14.4526H12.9688C12.7789 11.875 12.625 11.7211 12.625 11.5312V9.84375C12.625 9.6539 12.7789 9.5 12.9688 9.5H22.5312C22.7211 9.5 22.875 9.6539 22.875 9.84375V11.5312C22.875 11.7211 22.7211 11.875 22.5312 11.875H21.0474H20.493L20.5501 12.4265L20.9802 16.5843Z" fill="white" stroke="#999B9E"/>
</g>
<defs>
<clipPath id="clip0_6229_266">
<rect width="13.5" height="18" fill="white" transform="translate(11 9)"/>
</clipPath>
</defs>
</svg>
